<?xml version="1.0" encoding="utf-8"?>
<!-- Generator: Adobe Illustrator 20.1.0, SVG Export Plug-In . SVG Version: 6.00 Build 0)  -->
<svg version="1.1" id="Layer_1" xmlns="http://www.w3.org/2000/svg" xmlns:xlink="http://www.w3.org/1999/xlink" x="0px" y="0px"
	 width="500px" height="500px" viewBox="0 0 500 500" style="enable-background:new 0 0 500 500;" xml:space="preserve">
<style type="text/css">
	.st0{fill:#FFFFFF;}
	.st1{fill:#73F7DD;}
	.st2{opacity:0.5;fill:#FFFFFF;}
	.st3{opacity:0.49;fill:#73F7DD;}
	.st4{fill:#FFC952;}
	.st5{opacity:0.49;fill:#FFC952;}
	.st6{fill:#EA5455;}
	.st7{opacity:0.49;fill:#EA5455;}
	.st8{fill:#47B8E0;}
	.st9{opacity:0.1;fill:url(#SVGID_1_);}
	.st10{fill:#8DC6FF;}
	.st11{fill:#F8CA00;}
	.st12{opacity:0.5;}
</style>
<g>
	<g>
		<g>
			<g>
				
					<rect x="80.3" y="310.5" transform="matrix(0.7071 -0.7071 0.7071 0.7071 -185.4463 181.7341)" class="st0" width="92.6" height="8.4"/>
				
					<rect x="99.5" y="304.4" transform="matrix(0.7071 -0.7071 0.7071 0.7071 -182.3077 174.1569)" class="st1" width="39.1" height="5.4"/>
				
					<rect x="122.6" y="290.2" transform="matrix(-0.7071 -0.7071 0.7071 -0.7071 12.4626 590.9515)" class="st1" width="12" height="5.4"/>
				
					<rect x="98.6" y="314.1" transform="matrix(-0.7071 -0.7071 0.7071 -0.7071 -45.3606 614.9026)" class="st1" width="12" height="5.4"/>
				
					<rect x="94.3" y="324.3" transform="matrix(-0.7071 0.7071 -0.7071 -0.7071 400.6043 488.0437)" class="st2" width="9.9" height="5.4"/>
				
					<rect x="133.7" y="284.9" transform="matrix(-0.7071 0.7071 -0.7071 -0.7071 440.0066 392.9183)" class="st2" width="9.9" height="5.4"/>
				
					<rect x="103.1" y="299.8" transform="matrix(-0.7071 0.7071 -0.7071 -0.7071 408.1295 434.4988)" class="st3" width="22.1" height="3.9"/>
			</g>
			<g>
				
					<rect x="80.3" y="310.5" transform="matrix(-0.7071 0.7071 -0.7071 -0.7071 438.7448 447.7069)" class="st0" width="92.6" height="8.4"/>
				
					<rect x="114.7" y="319.6" transform="matrix(-0.7071 0.7071 -0.7071 -0.7071 457.0378 455.2841)" class="st1" width="39.1" height="5.4"/>
				
					<rect x="118.7" y="333.8" transform="matrix(0.7071 0.7071 -0.7071 0.7071 274.4913 10.412)" class="st1" width="12" height="5.4"/>
				
					<rect x="142.6" y="309.9" transform="matrix(0.7071 0.7071 -0.7071 0.7071 264.5704 -13.5391)" class="st1" width="12" height="5.4"/>
				
					<rect x="149.1" y="299.8" transform="matrix(0.7071 -0.7071 0.7071 0.7071 -168.7382 197.5324)" class="st2" width="9.9" height="5.4"/>
				
					<rect x="109.7" y="339.2" transform="matrix(0.7071 -0.7071 0.7071 0.7071 -208.1405 181.2114)" class="st2" width="9.9" height="5.4"/>
				
					<rect x="128.2" y="325.7" transform="matrix(0.7071 -0.7071 0.7071 0.7071 -190.9173 194.4153)" class="st3" width="22.1" height="3.9"/>
			</g>
		</g>
		<g>
			<g>
				
					<rect x="81.7" y="54.1" transform="matrix(-0.7071 -0.7071 0.7071 -0.7071 177.2479 190.0981)" class="st0" width="92.6" height="8.4"/>
				
					<rect x="100.9" y="63.2" transform="matrix(-0.7071 -0.7071 0.7071 -0.7071 158.9549 197.6753)" class="st4" width="39.1" height="5.4"/>
				
					<rect x="100.1" y="53.7" transform="matrix(-0.7071 0.7071 -0.7071 -0.7071 221.0994 21.1531)" class="st4" width="12" height="5.4"/>
				
					<rect x="124.1" y="77.6" transform="matrix(-0.7071 0.7071 -0.7071 -0.7071 278.9225 45.1043)" class="st4" width="12" height="5.4"/>
				
					<rect x="135.3" y="83.1" transform="matrix(0.7071 0.7071 -0.7071 0.7071 101.7267 -74.0618)" class="st2" width="9.9" height="5.4"/>
				
					<rect x="95.9" y="43.7" transform="matrix(0.7071 0.7071 -0.7071 0.7071 62.3244 -57.7408)" class="st2" width="9.9" height="5.4"/>
				
					<rect x="104" y="69" transform="matrix(0.7071 0.7071 -0.7071 0.7071 83.8397 -60.5829)" class="st5" width="22.1" height="3.9"/>
			</g>
			<g>
				
					<rect x="81.7" y="54.1" transform="matrix(0.7071 0.7071 -0.7071 0.7071 78.7412 -73.4185)" class="st0" width="92.6" height="8.4"/>
				
					<rect x="116" y="48.1" transform="matrix(0.7071 0.7071 -0.7071 0.7071 75.6026 -80.9957)" class="st4" width="39.1" height="5.4"/>
				
					<rect x="143.8" y="57.6" transform="matrix(0.7071 -0.7071 0.7071 0.7071 1.2344 123.604)" class="st4" width="12" height="5.4"/>
				
					<rect x="119.8" y="33.7" transform="matrix(0.7071 -0.7071 0.7071 0.7071 11.1553 99.6528)" class="st4" width="12" height="5.4"/>
				
					<rect x="110.8" y="28.2" transform="matrix(-0.7071 -0.7071 0.7071 -0.7071 175.6949 134.6063)" class="st2" width="9.9" height="5.4"/>
				
					<rect x="150.2" y="67.6" transform="matrix(-0.7071 -0.7071 0.7071 -0.7071 215.0971 229.7318)" class="st2" width="9.9" height="5.4"/>
				
					<rect x="129.9" y="43.8" transform="matrix(-0.7071 -0.7071 0.7071 -0.7071 208.2357 177.7893)" class="st5" width="22.1" height="3.9"/>
			</g>
		</g>
		<g>
			<g>
				
					<rect x="332.3" y="304.8" transform="matrix(-0.7071 -0.7071 0.7071 -0.7071 427.8955 795.2151)" class="st0" width="92.6" height="8.4"/>
				
					<rect x="351.5" y="313.9" transform="matrix(-0.7071 -0.7071 0.7071 -0.7071 409.6026 802.7923)" class="st6" width="39.1" height="5.4"/>
				
					<rect x="350.8" y="304.3" transform="matrix(-0.7071 0.7071 -0.7071 -0.7071 826.2164 271.8008)" class="st6" width="12" height="5.4"/>
				
					<rect x="374.7" y="328.3" transform="matrix(-0.7071 0.7071 -0.7071 -0.7071 884.0395 295.7519)" class="st6" width="12" height="5.4"/>
				
					<rect x="386" y="333.7" transform="matrix(0.7071 0.7071 -0.7071 0.7071 352.3744 -177.8834)" class="st2" width="9.9" height="5.4"/>
				
					<rect x="346.6" y="294.3" transform="matrix(0.7071 0.7071 -0.7071 0.7071 312.9721 -161.5625)" class="st2" width="9.9" height="5.4"/>
				
					<rect x="354.7" y="319.6" transform="matrix(0.7071 0.7071 -0.7071 0.7071 334.4873 -164.4046)" class="st7" width="22.1" height="3.9"/>
			</g>
			<g>
				
					<rect x="332.3" y="304.8" transform="matrix(0.7071 0.7071 -0.7071 0.7071 329.3889 -177.2401)" class="st0" width="92.6" height="8.4"/>
				
					<rect x="366.7" y="298.7" transform="matrix(0.7071 0.7071 -0.7071 0.7071 326.2503 -184.8173)" class="st6" width="39.1" height="5.4"/>
				
					<rect x="394.4" y="308.3" transform="matrix(0.7071 -0.7071 0.7071 0.7071 -102.5872 374.2516)" class="st6" width="12" height="5.4"/>
				
					<rect x="370.5" y="284.3" transform="matrix(0.7071 -0.7071 0.7071 0.7071 -92.6664 350.3005)" class="st6" width="12" height="5.4"/>
				
					<rect x="361.4" y="278.9" transform="matrix(-0.7071 -0.7071 0.7071 -0.7071 426.3425 739.7233)" class="st2" width="9.9" height="5.4"/>
				
					<rect x="400.8" y="318.3" transform="matrix(-0.7071 -0.7071 0.7071 -0.7071 465.7448 834.8488)" class="st2" width="9.9" height="5.4"/>
				
					<rect x="380.6" y="294.5" transform="matrix(-0.7071 -0.7071 0.7071 -0.7071 458.8834 782.9063)" class="st7" width="22.1" height="3.9"/>
			</g>
		</g>
		<g>
			<g>
				
					<rect x="330.6" y="60.3" transform="matrix(0.7071 -0.7071 0.7071 0.7071 64.8033 285.3908)" class="st0" width="92.6" height="8.4"/>
				
					<rect x="349.8" y="54.2" transform="matrix(0.7071 -0.7071 0.7071 0.7071 67.9418 277.8136)" class="st8" width="39.1" height="5.4"/>
				
					<rect x="372.9" y="39.9" transform="matrix(-0.7071 -0.7071 0.7071 -0.7071 616.6184 340.702)" class="st8" width="12" height="5.4"/>
				
					<rect x="348.9" y="63.9" transform="matrix(-0.7071 -0.7071 0.7071 -0.7071 558.7952 364.6531)" class="st8" width="12" height="5.4"/>
				
					<rect x="344.5" y="74" transform="matrix(-0.7071 0.7071 -0.7071 -0.7071 650.8539 -116.1121)" class="st2" width="9.9" height="5.4"/>
				
					<rect x="383.9" y="34.6" transform="matrix(-0.7071 0.7071 -0.7071 -0.7071 690.2561 -211.2375)" class="st2" width="9.9" height="5.4"/>
				
					<rect x="353.3" y="49.6" transform="matrix(-0.7071 0.7071 -0.7071 -0.7071 658.379 -169.657)" class="st8" width="22.1" height="3.9"/>
			</g>
			<g>
				
					<rect x="330.6" y="60.3" transform="matrix(-0.7071 0.7071 -0.7071 -0.7071 688.9944 -156.4489)" class="st0" width="92.6" height="8.4"/>
				
					<rect x="365" y="69.4" transform="matrix(-0.7071 0.7071 -0.7071 -0.7071 707.2874 -148.8717)" class="st8" width="39.1" height="5.4"/>
				
					<rect x="368.9" y="83.6" transform="matrix(0.7071 0.7071 -0.7071 0.7071 170.8345 -239.8375)" class="st8" width="12" height="5.4"/>
				
					<rect x="392.9" y="59.6" transform="matrix(0.7071 0.7071 -0.7071 0.7071 160.9137 -263.7886)" class="st8" width="12" height="5.4"/>
				
					<rect x="399.4" y="49.5" transform="matrix(0.7071 -0.7071 0.7071 0.7071 81.5113 301.1891)" class="st2" width="9.9" height="5.4"/>
				
					<rect x="360" y="88.9" transform="matrix(0.7071 -0.7071 0.7071 0.7071 42.109 284.8682)" class="st2" width="9.9" height="5.4"/>
				
					<rect x="378.4" y="75.5" transform="matrix(0.7071 -0.7071 0.7071 0.7071 59.3323 298.0721)" class="st8" width="22.1" height="3.9"/>
			</g>
		</g>
		<path class="st2" d="M372.6,315.6c-0.1,0-0.3-0.1-0.4-0.2c-0.2-0.2-0.2-0.5,0-0.7l1.4-1.4c0.2-0.2,0.5-0.2,0.7,0
			c0.2,0.2,0.2,0.5,0,0.7l-1.4,1.4C372.9,315.5,372.8,315.6,372.6,315.6z M124.6,313.8c-0.1,0-0.3,0-0.4-0.1l-1.4-1.4
			c-0.2-0.2-0.2-0.5,0-0.7c0.2-0.2,0.5-0.2,0.7,0l1.4,1.4c0.2,0.2,0.2,0.5,0,0.7C124.9,313.8,124.7,313.8,124.6,313.8z M379,309.2
			c-0.1,0-0.2,0-0.3-0.1c-0.2-0.2-0.2-0.5,0-0.7c0.5-0.5,0.9-1,1.4-1.5c0.2-0.2,0.5-0.2,0.7,0c0.2,0.2,0.2,0.5,0,0.7
			c-0.5,0.5-0.9,1-1.4,1.5C379.2,309.1,379.1,309.2,379,309.2z M118.4,307.3c-0.1,0-0.3-0.1-0.4-0.2c-0.5-0.5-0.9-1-1.3-1.5
			c-0.2-0.2-0.2-0.5,0-0.7c0.2-0.2,0.5-0.2,0.7,0c0.4,0.5,0.9,1,1.3,1.5c0.2,0.2,0.2,0.5,0,0.7C118.6,307.3,118.5,307.3,118.4,307.3
			z M384.9,302.4c-0.1,0-0.2,0-0.3-0.1c-0.2-0.2-0.2-0.5-0.1-0.7c0.4-0.5,0.9-1,1.3-1.5c0.2-0.2,0.5-0.2,0.7-0.1
			c0.2,0.2,0.2,0.5,0.1,0.7c-0.4,0.5-0.9,1-1.3,1.5C385.2,302.4,385.1,302.4,384.9,302.4z M112.5,300.5c-0.1,0-0.3-0.1-0.4-0.2
			c-0.4-0.5-0.8-1-1.3-1.6c-0.2-0.2-0.1-0.5,0.1-0.7c0.2-0.2,0.5-0.1,0.7,0.1c0.4,0.5,0.8,1,1.3,1.5c0.2,0.2,0.1,0.5-0.1,0.7
			C112.7,300.5,112.6,300.5,112.5,300.5z M390.6,295.4c-0.1,0-0.2,0-0.3-0.1c-0.2-0.2-0.3-0.5-0.1-0.7c0.4-0.5,0.8-1.1,1.2-1.6
			c0.2-0.2,0.5-0.3,0.7-0.1c0.2,0.2,0.3,0.5,0.1,0.7c-0.4,0.5-0.8,1.1-1.2,1.6C390.9,295.4,390.7,295.4,390.6,295.4z M106.9,293.5
			c-0.2,0-0.3-0.1-0.4-0.2c-0.4-0.5-0.8-1.1-1.2-1.6c-0.2-0.2-0.1-0.5,0.1-0.7c0.2-0.2,0.5-0.1,0.7,0.1c0.4,0.5,0.8,1.1,1.2,1.6
			c0.2,0.2,0.1,0.5-0.1,0.7C107.2,293.4,107,293.5,106.9,293.5z M395.9,288.1c-0.1,0-0.2,0-0.3-0.1c-0.2-0.2-0.3-0.5-0.1-0.7
			c0.4-0.6,0.7-1.1,1.1-1.7c0.2-0.2,0.5-0.3,0.7-0.1c0.2,0.2,0.3,0.5,0.1,0.7c-0.4,0.6-0.7,1.1-1.1,1.7
			C396.2,288,396,288.1,395.9,288.1z M101.8,286.1c-0.2,0-0.3-0.1-0.4-0.2c-0.4-0.6-0.7-1.1-1.1-1.7c-0.2-0.2-0.1-0.5,0.1-0.7
			c0.2-0.2,0.5-0.1,0.7,0.1c0.4,0.6,0.7,1.1,1.1,1.7c0.2,0.2,0.1,0.5-0.1,0.7C102,286.1,101.9,286.1,101.8,286.1z M400.7,280.6
			c-0.1,0-0.2,0-0.3-0.1c-0.2-0.1-0.3-0.5-0.2-0.7c0.3-0.6,0.7-1.1,1-1.7c0.1-0.2,0.5-0.3,0.7-0.2c0.2,0.1,0.3,0.4,0.2,0.7
			c-0.3,0.6-0.7,1.1-1,1.7C401.1,280.5,400.9,280.6,400.7,280.6z M97,278.5c-0.2,0-0.3-0.1-0.4-0.2c-0.3-0.6-0.7-1.1-1-1.7
			c-0.1-0.2-0.1-0.5,0.2-0.7c0.2-0.1,0.5-0.1,0.7,0.2c0.3,0.6,0.7,1.1,1,1.7c0.1,0.2,0.1,0.5-0.2,0.7
			C97.2,278.5,97.1,278.5,97,278.5z M405.3,272.8c-0.1,0-0.2,0-0.2-0.1c-0.2-0.1-0.3-0.4-0.2-0.7c0.3-0.6,0.6-1.2,0.9-1.8
			c0.1-0.2,0.4-0.3,0.7-0.2c0.2,0.1,0.3,0.4,0.2,0.7c-0.3,0.6-0.6,1.2-0.9,1.8C405.6,272.7,405.4,272.8,405.3,272.8z M92.6,270.7
			c-0.2,0-0.4-0.1-0.4-0.3c-0.3-0.6-0.6-1.2-0.9-1.8c-0.1-0.2,0-0.5,0.2-0.7c0.2-0.1,0.5,0,0.7,0.2c0.3,0.6,0.6,1.2,0.9,1.8
			c0.1,0.2,0,0.5-0.2,0.7C92.8,270.7,92.7,270.7,92.6,270.7z M409.3,264.7c-0.1,0-0.1,0-0.2,0c-0.2-0.1-0.4-0.4-0.2-0.7
			c0.3-0.6,0.6-1.2,0.9-1.8c0.1-0.3,0.4-0.4,0.7-0.2c0.2,0.1,0.4,0.4,0.2,0.7c-0.3,0.6-0.6,1.2-0.9,1.8
			C409.7,264.6,409.5,264.7,409.3,264.7z M88.6,262.6c-0.2,0-0.4-0.1-0.5-0.3c-0.3-0.6-0.6-1.2-0.8-1.8c-0.1-0.3,0-0.5,0.3-0.7
			c0.3-0.1,0.5,0,0.7,0.3c0.3,0.6,0.5,1.2,0.8,1.8c0.1,0.2,0,0.5-0.2,0.7C88.7,262.6,88.7,262.6,88.6,262.6z M413,256.5
			c-0.1,0-0.1,0-0.2,0c-0.3-0.1-0.4-0.4-0.3-0.7c0.3-0.6,0.5-1.2,0.8-1.8c0.1-0.3,0.4-0.4,0.7-0.3c0.3,0.1,0.4,0.4,0.3,0.7
			c-0.3,0.6-0.5,1.2-0.8,1.9C413.4,256.4,413.2,256.5,413,256.5z M85,254.4c-0.2,0-0.4-0.1-0.5-0.3c-0.2-0.6-0.5-1.2-0.7-1.9
			c-0.1-0.3,0-0.5,0.3-0.6c0.3-0.1,0.5,0,0.6,0.3c0.2,0.6,0.5,1.2,0.7,1.9c0.1,0.3,0,0.5-0.3,0.7C85.2,254.3,85.1,254.4,85,254.4z
			 M416.3,248.1c-0.1,0-0.1,0-0.2,0c-0.3-0.1-0.4-0.4-0.3-0.6c0.2-0.6,0.4-1.3,0.7-1.9c0.1-0.3,0.4-0.4,0.6-0.3
			c0.3,0.1,0.4,0.4,0.3,0.6c-0.2,0.6-0.4,1.3-0.7,1.9C416.7,248,416.5,248.1,416.3,248.1z M81.9,245.9c-0.2,0-0.4-0.1-0.5-0.3
			c-0.2-0.6-0.4-1.3-0.6-1.9c-0.1-0.3,0.1-0.5,0.3-0.6c0.3-0.1,0.5,0.1,0.6,0.3c0.2,0.6,0.4,1.3,0.6,1.9c0.1,0.3,0,0.5-0.3,0.6
			C82,245.9,81.9,245.9,81.9,245.9z M419.1,239.6c0,0-0.1,0-0.1,0c-0.3-0.1-0.4-0.4-0.3-0.6c0.2-0.6,0.4-1.3,0.6-1.9
			c0.1-0.3,0.4-0.4,0.6-0.3c0.3,0.1,0.4,0.4,0.3,0.6c-0.2,0.6-0.4,1.3-0.6,1.9C419.5,239.4,419.3,239.6,419.1,239.6z M79.2,237.4
			c-0.2,0-0.4-0.1-0.5-0.4c-0.2-0.6-0.4-1.3-0.5-1.9c-0.1-0.3,0.1-0.5,0.3-0.6c0.3-0.1,0.5,0.1,0.6,0.3c0.2,0.6,0.4,1.3,0.5,1.9
			c0.1,0.3-0.1,0.5-0.3,0.6C79.3,237.4,79.2,237.4,79.2,237.4z M421.5,230.9c0,0-0.1,0-0.1,0c-0.3-0.1-0.4-0.3-0.4-0.6
			c0.2-0.6,0.3-1.3,0.5-1.9c0.1-0.3,0.3-0.4,0.6-0.4c0.3,0.1,0.4,0.3,0.4,0.6c-0.2,0.7-0.3,1.3-0.5,1.9
			C421.9,230.7,421.7,230.9,421.5,230.9z M76.9,228.7c-0.2,0-0.4-0.2-0.5-0.4c-0.2-0.7-0.3-1.3-0.4-2c-0.1-0.3,0.1-0.5,0.4-0.6
			c0.3-0.1,0.5,0.1,0.6,0.4c0.1,0.6,0.3,1.3,0.4,1.9c0.1,0.3-0.1,0.5-0.4,0.6C77,228.7,76.9,228.7,76.9,228.7z M423.4,222.1
			C423.4,222.1,423.4,222.1,423.4,222.1c-0.4-0.1-0.5-0.3-0.5-0.6c0.1-0.7,0.3-1.3,0.4-2c0.1-0.3,0.3-0.5,0.6-0.4
			c0.3,0,0.5,0.3,0.4,0.6c-0.1,0.7-0.2,1.3-0.4,2C423.9,221.9,423.7,222.1,423.4,222.1z M75.1,219.8c-0.2,0-0.4-0.2-0.5-0.4
			c-0.1-0.7-0.2-1.3-0.3-2c0-0.3,0.1-0.5,0.4-0.6c0.3,0,0.5,0.1,0.6,0.4c0.1,0.7,0.2,1.3,0.3,2C75.6,219.5,75.4,219.8,75.1,219.8
			C75.1,219.8,75.1,219.8,75.1,219.8z M424.9,213.2C424.9,213.2,424.9,213.2,424.9,213.2c-0.3,0-0.5-0.3-0.5-0.6
			c0.1-0.7,0.2-1.3,0.3-2c0-0.3,0.3-0.5,0.6-0.4c0.3,0,0.5,0.3,0.4,0.6c-0.1,0.7-0.2,1.3-0.3,2C425.4,213,425.2,213.2,424.9,213.2z
			 M73.7,211c-0.2,0-0.5-0.2-0.5-0.4c-0.1-0.7-0.2-1.3-0.2-2c0-0.3,0.2-0.5,0.4-0.6c0.3,0,0.5,0.2,0.6,0.4c0.1,0.7,0.2,1.3,0.2,2
			C74.2,210.7,74,210.9,73.7,211C73.7,211,73.7,211,73.7,211z M426,204.3C426,204.3,425.9,204.3,426,204.3c-0.3,0-0.5-0.3-0.5-0.5
			c0.1-0.7,0.1-1.3,0.2-2c0-0.3,0.3-0.5,0.5-0.5c0.3,0,0.5,0.3,0.5,0.5c-0.1,0.7-0.1,1.3-0.2,2C426.4,204.1,426.2,204.3,426,204.3z
			 M72.8,202c-0.3,0-0.5-0.2-0.5-0.5c-0.1-0.7-0.1-1.3-0.1-2c0-0.3,0.2-0.5,0.5-0.5c0.3,0,0.5,0.2,0.5,0.5c0,0.7,0.1,1.3,0.1,2
			C73.3,201.7,73.1,202,72.8,202C72.8,202,72.8,202,72.8,202z M426.6,195C426.5,195,426.5,195,426.6,195c-0.3,0-0.5-0.1-0.5-0.4
			c0-0.7,0-1.3,0.1-1.9c0-0.3,0.3-0.5,0.5-0.4c0.3,0,0.5,0.3,0.5,0.5c0,0.7,0,1.2-0.1,1.9C427,194.9,426.8,195,426.6,195z M72.3,193
			c-0.3,0-0.5-0.2-0.5-0.5c0-0.7,0-1.3,0-2c0-0.3,0.2-0.5,0.5-0.5c0.3,0,0.5,0.2,0.5,0.5c0,0.7,0,1.3,0,2
			C72.8,192.8,72.6,193,72.3,193C72.3,193,72.3,193,72.3,193z M426.7,186c-0.3,0-0.5-0.1-0.5-0.3c0-0.7,0-1.4,0-2.1
			c0-0.3,0.2-0.6,0.5-0.6c0,0,0,0,0,0c0.3,0,0.5,0.4,0.5,0.6c0,0.7,0,1.3,0,1.9C427.2,185.8,427,186,426.7,186
			C426.7,186,426.7,186,426.7,186z M72.3,184C72.3,184,72.3,184,72.3,184c-0.3,0-0.5-0.2-0.5-0.5c0-0.7,0-1.3,0.1-2
			c0-0.3,0.3-0.5,0.5-0.5c0.3,0,0.5,0.2,0.5,0.5c0,0.7,0,1.3-0.1,2C72.8,183.8,72.6,184,72.3,184z M426.4,177c-0.3,0-0.5,0-0.5-0.3
			c0-0.7-0.1-1.2-0.1-1.9c0-0.3,0.2-0.5,0.5-0.5c0.3,0,0.5,0.2,0.5,0.5c0,0.7,0.1,1.2,0.1,1.9C426.9,176.9,426.7,177,426.4,177
			C426.4,177,426.4,177,426.4,177z M72.7,175C72.7,175,72.7,175,72.7,175c-0.3,0-0.5-0.3-0.5-0.5c0-0.7,0.1-1.3,0.2-2
			c0-0.3,0.3-0.5,0.5-0.5c0.3,0,0.5,0.3,0.5,0.5c-0.1,0.7-0.1,1.3-0.2,2C73.2,174.8,73,175,72.7,175z M425.6,168.3
			c-0.3,0-0.5-0.2-0.5-0.4c-0.1-0.7-0.2-1.3-0.2-2c0-0.3,0.2-0.5,0.4-0.6c0.3,0,0.5,0.2,0.6,0.4c0.1,0.7,0.2,1.3,0.2,2
			C426.1,168.1,425.9,168.3,425.6,168.3C425.6,168.3,425.6,168.3,425.6,168.3z M73.6,166.1C73.6,166.1,73.6,166.1,73.6,166.1
			c-0.3,0-0.5-0.3-0.5-0.6c0.1-0.7,0.2-1.3,0.3-2c0-0.3,0.3-0.5,0.6-0.4c0.3,0,0.5,0.3,0.4,0.6c-0.1,0.7-0.2,1.3-0.3,2
			C74.1,165.9,73.9,166.1,73.6,166.1z M424.4,159.4c-0.2,0-0.5-0.2-0.5-0.4c-0.1-0.7-0.2-1.3-0.3-2c0-0.3,0.1-0.5,0.4-0.6
			c0.3,0,0.5,0.1,0.6,0.4c0.1,0.7,0.2,1.3,0.3,2C424.9,159.1,424.7,159.4,424.4,159.4C424.4,159.4,424.4,159.4,424.4,159.4z
			 M74.9,157.2C74.9,157.2,74.9,157.2,74.9,157.2c-0.4-0.1-0.5-0.3-0.5-0.6c0.1-0.7,0.2-1.3,0.4-2c0.1-0.3,0.3-0.4,0.6-0.4
			c0.3,0.1,0.4,0.3,0.4,0.6c-0.1,0.7-0.2,1.3-0.4,2C75.4,157,75.2,157.2,74.9,157.2z M422.7,150.6c-0.2,0-0.4-0.2-0.5-0.4
			c-0.1-0.6-0.3-1.3-0.4-1.9c-0.1-0.3,0.1-0.5,0.4-0.6c0.3-0.1,0.5,0.1,0.6,0.4c0.1,0.7,0.3,1.3,0.4,2c0.1,0.3-0.1,0.5-0.4,0.6
			C422.8,150.6,422.7,150.6,422.7,150.6z M76.7,148.4c0,0-0.1,0-0.1,0c-0.3-0.1-0.4-0.3-0.4-0.6c0.1-0.7,0.3-1.3,0.5-2
			c0.1-0.3,0.3-0.4,0.6-0.4c0.3,0.1,0.4,0.3,0.4,0.6c-0.2,0.6-0.3,1.3-0.5,1.9C77.2,148.2,77,148.4,76.7,148.4z M420.6,141.9
			c-0.2,0-0.4-0.1-0.5-0.4c-0.2-0.6-0.3-1.3-0.5-1.9c-0.1-0.3,0.1-0.5,0.3-0.6c0.3-0.1,0.5,0.1,0.6,0.3c0.2,0.6,0.4,1.3,0.5,1.9
			c0.1,0.3-0.1,0.5-0.4,0.6C420.7,141.8,420.6,141.9,420.6,141.9z M79,139.6c0,0-0.1,0-0.1,0c-0.3-0.1-0.4-0.4-0.3-0.6
			c0.2-0.6,0.4-1.3,0.6-1.9c0.1-0.3,0.4-0.4,0.6-0.3c0.3,0.1,0.4,0.4,0.3,0.6c-0.2,0.6-0.4,1.3-0.6,1.9
			C79.4,139.5,79.2,139.6,79,139.6z M418,133.2c-0.2,0-0.4-0.1-0.5-0.3c-0.2-0.6-0.4-1.3-0.6-1.9c-0.1-0.3,0.1-0.5,0.3-0.6
			c0.3-0.1,0.5,0.1,0.6,0.3c0.2,0.6,0.4,1.3,0.6,1.9c0.1,0.3-0.1,0.5-0.3,0.6C418.1,133.2,418.1,133.2,418,133.2z M81.6,131
			c-0.1,0-0.1,0-0.2,0c-0.3-0.1-0.4-0.4-0.3-0.6c0.2-0.6,0.4-1.3,0.7-1.9c0.1-0.3,0.4-0.4,0.6-0.3c0.3,0.1,0.4,0.4,0.3,0.6
			c-0.2,0.6-0.4,1.3-0.7,1.9C82,130.9,81.9,131,81.6,131z M415,124.7c-0.2,0-0.4-0.1-0.5-0.3c-0.2-0.6-0.5-1.2-0.7-1.9
			c-0.1-0.3,0-0.5,0.3-0.6c0.3-0.1,0.5,0,0.6,0.3c0.2,0.6,0.5,1.2,0.7,1.9c0.1,0.3,0,0.5-0.3,0.6C415.2,124.7,415.1,124.7,415,124.7
			z M84.8,122.6c-0.1,0-0.1,0-0.2,0c-0.3-0.1-0.4-0.4-0.3-0.6c0.2-0.6,0.5-1.2,0.8-1.9c0.1-0.3,0.4-0.4,0.7-0.3
			c0.3,0.1,0.4,0.4,0.3,0.7c-0.3,0.6-0.5,1.2-0.7,1.9C85.1,122.5,85,122.6,84.8,122.6z M411.6,116.4c-0.2,0-0.4-0.1-0.5-0.3
			c-0.3-0.6-0.5-1.2-0.8-1.8c-0.1-0.3,0-0.5,0.2-0.7c0.2-0.1,0.5,0,0.7,0.2c0.3,0.6,0.6,1.2,0.8,1.8c0.1,0.3,0,0.5-0.3,0.7
			C411.8,116.4,411.7,116.4,411.6,116.4z M88.3,114.3c-0.1,0-0.1,0-0.2,0c-0.3-0.1-0.4-0.4-0.2-0.7c0.3-0.6,0.6-1.2,0.8-1.8
			c0.1-0.2,0.4-0.4,0.7-0.2c0.2,0.1,0.4,0.4,0.2,0.7c-0.3,0.6-0.6,1.2-0.8,1.8C88.7,114.2,88.5,114.3,88.3,114.3z M407.8,108.3
			c-0.2,0-0.4-0.1-0.4-0.3c-0.3-0.6-0.6-1.2-0.9-1.8c-0.1-0.2,0-0.5,0.2-0.7c0.2-0.1,0.5,0,0.7,0.2c0.3,0.6,0.6,1.2,0.9,1.8
			c0.1,0.2,0,0.5-0.2,0.7C407.9,108.3,407.8,108.3,407.8,108.3z M92.3,106.2c-0.1,0-0.2,0-0.2-0.1c-0.2-0.1-0.3-0.4-0.2-0.7
			c0.3-0.6,0.6-1.2,0.9-1.8c0.1-0.2,0.4-0.3,0.7-0.2c0.2,0.1,0.3,0.4,0.2,0.7c-0.3,0.6-0.6,1.2-0.9,1.8
			C92.6,106.1,92.4,106.2,92.3,106.2z M403.5,100.4c-0.2,0-0.3-0.1-0.4-0.3c-0.3-0.6-0.7-1.1-1-1.7c-0.1-0.2-0.1-0.5,0.2-0.7
			c0.2-0.1,0.5-0.1,0.7,0.2c0.3,0.6,0.7,1.2,1,1.7c0.1,0.2,0.1,0.5-0.2,0.7C403.7,100.4,403.6,100.4,403.5,100.4z M96.6,98.4
			c-0.1,0-0.2,0-0.3-0.1c-0.2-0.1-0.3-0.4-0.2-0.7c0.3-0.6,0.7-1.2,1-1.7c0.1-0.2,0.4-0.3,0.7-0.2c0.2,0.1,0.3,0.4,0.2,0.7
			c-0.3,0.6-0.7,1.1-1,1.7C97,98.3,96.8,98.4,96.6,98.4z M398.9,92.7c-0.2,0-0.3-0.1-0.4-0.2c-0.4-0.6-0.7-1.1-1.1-1.7
			c-0.2-0.2-0.1-0.5,0.1-0.7c0.2-0.2,0.5-0.1,0.7,0.1c0.4,0.6,0.7,1.1,1.1,1.7c0.1,0.2,0.1,0.5-0.2,0.7
			C399.1,92.7,399,92.7,398.9,92.7z M101.4,90.7c-0.1,0-0.2,0-0.3-0.1c-0.2-0.2-0.3-0.5-0.1-0.7c0.4-0.6,0.7-1.1,1.1-1.7
			c0.2-0.2,0.5-0.3,0.7-0.1c0.2,0.2,0.3,0.5,0.1,0.7c-0.4,0.6-0.7,1.1-1.1,1.7C101.7,90.6,101.5,90.7,101.4,90.7z M393.8,85.2
			c-0.2,0-0.3-0.1-0.4-0.2c-0.4-0.5-0.8-1.1-1.2-1.6c-0.2-0.2-0.1-0.5,0.1-0.7c0.2-0.2,0.5-0.1,0.7,0.1c0.4,0.5,0.8,1.1,1.2,1.6
			c0.2,0.2,0.1,0.5-0.1,0.7C394,85.2,393.9,85.2,393.8,85.2z M106.5,83.3c-0.1,0-0.2,0-0.3-0.1c-0.2-0.2-0.3-0.5-0.1-0.7
			c0.4-0.5,0.8-1.1,1.2-1.6c0.2-0.2,0.5-0.3,0.7-0.1c0.2,0.2,0.3,0.5,0.1,0.7c-0.4,0.5-0.8,1.1-1.2,1.6
			C106.8,83.2,106.7,83.3,106.5,83.3z M388.4,78.1c-0.1,0-0.3-0.1-0.4-0.2c-0.4-0.5-0.8-1-1.2-1.5c-0.2-0.2-0.1-0.5,0.1-0.7
			c0.2-0.2,0.5-0.1,0.7,0.1c0.4,0.5,0.8,1,1.2,1.6c0.2,0.2,0.1,0.5-0.1,0.7C388.6,78,388.5,78.1,388.4,78.1z M112.1,76.2
			c-0.1,0-0.2,0-0.3-0.1c-0.2-0.2-0.2-0.5-0.1-0.7c0.4-0.5,0.9-1,1.3-1.6c0.2-0.2,0.5-0.2,0.7-0.1c0.2,0.2,0.2,0.5,0.1,0.7
			c-0.4,0.5-0.9,1-1.3,1.5C112.3,76.1,112.2,76.2,112.1,76.2z M382.7,71.2c-0.1,0-0.3-0.1-0.4-0.2c-0.4-0.5-0.9-1-1.3-1.5
			c-0.2-0.2-0.2-0.5,0-0.7c0.2-0.2,0.5-0.2,0.7,0c0.4,0.5,0.9,1,1.3,1.5c0.2,0.2,0.2,0.5,0,0.7C382.9,71.1,382.8,71.2,382.7,71.2z
			 M117.9,69.4c-0.1,0-0.2,0-0.3-0.1c-0.2-0.2-0.2-0.5,0-0.7c0.4-0.5,0.9-1,1.4-1.5c0.2-0.2,0.5-0.2,0.7,0c0.2,0.2,0.2,0.5,0,0.7
			c-0.5,0.5-0.9,1-1.3,1.5C118.2,69.3,118.1,69.4,117.9,69.4z M376.5,64.6c-0.1,0-0.3-0.1-0.4-0.2c-0.5-0.5-0.9-0.9-1.4-1.4
			c-0.2-0.2-0.2-0.5,0-0.7c0.2-0.2,0.5-0.2,0.7,0c0.5,0.5,0.9,1,1.4,1.4c0.2,0.2,0.2,0.5,0,0.7C376.8,64.5,376.7,64.6,376.5,64.6z
			 M124.5,62.6l-0.4-0.3l-0.4-0.4c0.5-0.5,1-1,1.4-1.4c0.2-0.2,0.5-0.2,0.7,0c0.2,0.2,0.2,0.5,0,0.7C125.4,61.7,125,62.2,124.5,62.6
			z M370.1,58.3c-0.1,0-0.2,0-0.3-0.1c-0.5-0.5-1-0.9-1.5-1.3c-0.2-0.2-0.2-0.5,0-0.7c0.2-0.2,0.5-0.2,0.7,0c0.5,0.4,1,0.9,1.5,1.4
			c0.2,0.2,0.2,0.5,0,0.7C370.4,58.2,370.2,58.3,370.1,58.3z M130.6,56.6c-0.1,0-0.3-0.1-0.4-0.2c-0.2-0.2-0.2-0.5,0-0.7
			c0.5-0.4,1-0.9,1.5-1.3c0.2-0.2,0.5-0.2,0.7,0c0.2,0.2,0.2,0.5,0,0.7c-0.5,0.4-1,0.9-1.5,1.3C130.9,56.6,130.8,56.6,130.6,56.6z
			 M363.4,52.3c-0.1,0-0.2,0-0.3-0.1c-0.5-0.4-1-0.9-1.5-1.3c-0.2-0.2-0.2-0.5-0.1-0.7c0.2-0.2,0.5-0.2,0.7-0.1
			c0.5,0.4,1,0.9,1.5,1.3c0.2,0.2,0.2,0.5,0.1,0.7C363.7,52.3,363.5,52.3,363.4,52.3z M137.5,50.8c-0.1,0-0.3-0.1-0.4-0.2
			c-0.2-0.2-0.1-0.5,0.1-0.7c0.5-0.4,1-0.8,1.6-1.3c0.2-0.2,0.5-0.1,0.7,0.1c0.2,0.2,0.1,0.5-0.1,0.7c-0.5,0.4-1,0.8-1.5,1.2
			C137.7,50.7,137.6,50.8,137.5,50.8z M356.3,46.7c-0.1,0-0.2,0-0.3-0.1c-0.5-0.4-1.1-0.8-1.6-1.2c-0.2-0.2-0.3-0.5-0.1-0.7
			c0.2-0.2,0.5-0.3,0.7-0.1c0.5,0.4,1.1,0.8,1.6,1.2c0.2,0.2,0.3,0.5,0.1,0.7C356.6,46.6,356.5,46.7,356.3,46.7z M144.6,45.3
			c-0.2,0-0.3-0.1-0.4-0.2c-0.2-0.2-0.1-0.5,0.1-0.7c0.5-0.4,1.1-0.8,1.6-1.2c0.2-0.2,0.5-0.1,0.7,0.1c0.2,0.2,0.1,0.5-0.1,0.7
			c-0.5,0.4-1.1,0.8-1.6,1.2C144.8,45.2,144.7,45.3,144.6,45.3z M349,41.4c-0.1,0-0.2,0-0.3-0.1c-0.6-0.4-1.1-0.7-1.7-1.1
			c-0.2-0.2-0.3-0.5-0.1-0.7c0.2-0.2,0.5-0.3,0.7-0.1c0.6,0.4,1.1,0.7,1.7,1.1c0.2,0.2,0.3,0.5,0.1,0.7
			C349.3,41.4,349.2,41.4,349,41.4z M151.9,40.1c-0.2,0-0.3-0.1-0.4-0.2c-0.2-0.2-0.1-0.5,0.1-0.7c0.6-0.4,1.1-0.7,1.7-1.1
			c0.2-0.1,0.5-0.1,0.7,0.1c0.1,0.2,0.1,0.5-0.1,0.7c-0.6,0.4-1.1,0.7-1.7,1.1C152.1,40.1,152,40.1,151.9,40.1z M341.4,36.6
			c-0.1,0-0.2,0-0.3-0.1c-0.6-0.3-1.1-0.7-1.7-1c-0.2-0.1-0.3-0.4-0.2-0.7c0.1-0.2,0.4-0.3,0.7-0.2c0.6,0.3,1.2,0.7,1.7,1
			c0.2,0.1,0.3,0.5,0.2,0.7C341.8,36.5,341.6,36.6,341.4,36.6z M159.5,35.3c-0.2,0-0.3-0.1-0.4-0.2c-0.1-0.2-0.1-0.5,0.2-0.7
			c0.6-0.3,1.2-0.7,1.7-1c0.2-0.1,0.5-0.1,0.7,0.2c0.1,0.2,0.1,0.5-0.2,0.7c-0.6,0.3-1.1,0.7-1.7,1
			C159.7,35.3,159.6,35.3,159.5,35.3z M333.6,32.1c-0.1,0-0.2,0-0.2-0.1c-0.6-0.3-1.2-0.6-1.8-0.9c-0.2-0.1-0.3-0.4-0.2-0.7
			c0.1-0.2,0.4-0.3,0.7-0.2c0.6,0.3,1.2,0.6,1.8,0.9c0.2,0.1,0.3,0.4,0.2,0.7C334,32,333.8,32.1,333.6,32.1z M167.4,31
			c-0.2,0-0.4-0.1-0.4-0.3c-0.1-0.2,0-0.5,0.2-0.7c0.6-0.3,1.2-0.6,1.8-0.9c0.2-0.1,0.5,0,0.7,0.2c0.1,0.2,0,0.5-0.2,0.7
			c-0.6,0.3-1.2,0.6-1.8,0.9C167.6,31,167.5,31,167.4,31z M325.6,28c-0.1,0-0.1,0-0.2,0c-0.6-0.3-1.2-0.6-1.8-0.8
			c-0.3-0.1-0.4-0.4-0.2-0.7c0.1-0.3,0.4-0.4,0.7-0.2c0.6,0.3,1.2,0.6,1.8,0.9c0.2,0.1,0.4,0.4,0.2,0.7C326,27.9,325.8,28,325.6,28z
			 M175.5,27c-0.2,0-0.4-0.1-0.5-0.3c-0.1-0.3,0-0.5,0.2-0.7c0.6-0.3,1.2-0.6,1.8-0.8c0.3-0.1,0.5,0,0.7,0.3c0.1,0.3,0,0.5-0.3,0.7
			c-0.6,0.3-1.2,0.5-1.8,0.8C175.6,27,175.5,27,175.5,27z M317.4,24.4c-0.1,0-0.1,0-0.2,0c-0.6-0.3-1.2-0.5-1.8-0.8
			c-0.3-0.1-0.4-0.4-0.3-0.6c0.1-0.3,0.4-0.4,0.6-0.3c0.6,0.2,1.2,0.5,1.9,0.8c0.3,0.1,0.4,0.4,0.3,0.7
			C317.7,24.2,317.6,24.4,317.4,24.4z M183.7,23.5c-0.2,0-0.4-0.1-0.5-0.3c-0.1-0.3,0-0.5,0.3-0.6c0.6-0.2,1.2-0.5,1.9-0.7
			c0.3-0.1,0.5,0,0.6,0.3c0.1,0.3,0,0.5-0.3,0.6c-0.6,0.2-1.2,0.5-1.9,0.7C183.9,23.5,183.8,23.5,183.7,23.5z M309,21.1
			c-0.1,0-0.1,0-0.2,0c-0.6-0.2-1.3-0.4-1.9-0.7c-0.3-0.1-0.4-0.4-0.3-0.6c0.1-0.3,0.4-0.4,0.6-0.3c0.6,0.2,1.3,0.4,1.9,0.7
			c0.3,0.1,0.4,0.4,0.3,0.6C309.4,21,309.2,21.1,309,21.1z M192.2,20.4c-0.2,0-0.4-0.1-0.5-0.3c-0.1-0.3,0.1-0.5,0.3-0.6
			c0.6-0.2,1.3-0.4,1.9-0.6c0.3-0.1,0.5,0.1,0.6,0.3c0.1,0.3-0.1,0.5-0.3,0.6c-0.6,0.2-1.3,0.4-1.9,0.6
			C192.3,20.3,192.2,20.4,192.2,20.4z M300.4,18.3c0,0-0.1,0-0.1,0c-0.6-0.2-1.3-0.4-1.9-0.6c-0.3-0.1-0.4-0.4-0.3-0.6
			c0.1-0.3,0.3-0.4,0.6-0.3c0.6,0.2,1.3,0.4,1.9,0.6c0.3,0.1,0.4,0.4,0.3,0.6C300.8,18.2,300.6,18.3,300.4,18.3z M200.8,17.7
			c-0.2,0-0.4-0.1-0.5-0.4c-0.1-0.3,0.1-0.5,0.3-0.6c0.6-0.2,1.3-0.4,1.9-0.5c0.3-0.1,0.5,0.1,0.6,0.4c0.1,0.3-0.1,0.5-0.4,0.6
			c-0.6,0.2-1.3,0.4-1.9,0.5C200.8,17.7,200.8,17.7,200.8,17.7z M291.7,16c0,0-0.1,0-0.1,0c-0.6-0.2-1.3-0.3-1.9-0.5
			c-0.3-0.1-0.4-0.3-0.4-0.6c0.1-0.3,0.3-0.4,0.6-0.4c0.7,0.2,1.3,0.3,2,0.5c0.3,0.1,0.4,0.3,0.4,0.6C292.1,15.8,291.9,16,291.7,16z
			 M209.5,15.4c-0.2,0-0.4-0.2-0.5-0.4c-0.1-0.3,0.1-0.5,0.4-0.6c0.7-0.2,1.3-0.3,2-0.4c0.3-0.1,0.5,0.1,0.6,0.4
			c0.1,0.3-0.1,0.5-0.4,0.6c-0.6,0.1-1.3,0.3-1.9,0.4C209.5,15.4,209.5,15.4,209.5,15.4z M282.9,14.1
			C282.9,14.1,282.9,14,282.9,14.1c-0.7-0.1-1.4-0.3-2.1-0.4c-0.3,0-0.5-0.3-0.4-0.6c0-0.3,0.3-0.5,0.6-0.4c0.7,0.1,1.3,0.2,2,0.4
			c0.3,0.1,0.4,0.3,0.4,0.6C283.4,13.9,283.2,14.1,282.9,14.1z M218.3,13.6c-0.2,0-0.4-0.2-0.5-0.4c0-0.3,0.1-0.5,0.4-0.6
			c0.7-0.1,1.3-0.2,2-0.3c0.3,0,0.5,0.1,0.6,0.4c0,0.3-0.1,0.5-0.4,0.6C219.7,13.4,219,13.5,218.3,13.6
			C218.3,13.6,218.3,13.6,218.3,13.6z M274,12.6C274,12.6,274,12.6,274,12.6c-0.7-0.1-1.4-0.2-2-0.3c-0.3,0-0.5-0.3-0.4-0.6
			c0-0.3,0.3-0.5,0.6-0.4c0.7,0.1,1.3,0.2,2,0.3c0.3,0,0.5,0.3,0.4,0.6C274.5,12.4,274.3,12.6,274,12.6z M227.2,12.3
			c-0.2,0-0.5-0.2-0.5-0.4c0-0.3,0.2-0.5,0.4-0.6c0.7-0.1,1.3-0.2,2-0.2c0.3,0,0.5,0.2,0.6,0.4c0,0.3-0.2,0.5-0.4,0.6
			C228.6,12.1,227.9,12.2,227.2,12.3C227.2,12.3,227.2,12.3,227.2,12.3z M265.1,11.6C265.1,11.6,265.1,11.6,265.1,11.6
			c-0.7-0.1-1.4-0.1-2-0.2c-0.3,0-0.5-0.3-0.5-0.5c0-0.3,0.3-0.5,0.5-0.5c0.7,0.1,1.3,0.1,2,0.2c0.3,0,0.5,0.3,0.5,0.5
			C265.6,11.4,265.4,11.6,265.1,11.6z M236.1,11.4c-0.3,0-0.5-0.2-0.5-0.5c0-0.3,0.2-0.5,0.5-0.5c0.7,0,1.3-0.1,2-0.1
			c0.3,0,0.5,0.2,0.5,0.5c0,0.3-0.2,0.5-0.5,0.5C237.5,11.3,236.8,11.3,236.1,11.4C236.2,11.4,236.1,11.4,236.1,11.4z M256.1,11
			C256.1,11,256.1,11,256.1,11c-0.7,0-1.3,0-2-0.1c-0.3,0-0.5-0.2-0.5-0.5c0-0.3,0.2-0.5,0.5-0.5c0.7,0,1.3,0,2,0.1
			c0.3,0,0.5,0.2,0.5,0.5C256.6,10.8,256.4,11,256.1,11z M245.1,11c-0.3,0-0.5-0.2-0.5-0.5c0-0.3,0.2-0.5,0.5-0.5c0.7,0,1.3,0,2,0
			c0.3,0,0.5,0.2,0.5,0.5c0,0.3-0.2,0.5-0.5,0.5C246.5,10.9,245.8,11,245.1,11C245.1,11,245.1,11,245.1,11z"/>
		<linearGradient id="SVGID_1_" gradientUnits="userSpaceOnUse" x1="247.0467" y1="265.0964" x2="247.0467" y2="120.626">
			<stop  offset="0" style="stop-color:#FFFFFF;stop-opacity:0"/>
			<stop  offset="1" style="stop-color:#FFFFFF"/>
		</linearGradient>
		<circle class="st9" cx="247" cy="185.6" r="84"/>
		<g>
			<polygon class="st10" points="281.8,205.1 296.9,189.9 281.7,174.8 			"/>
			<polygon class="st0" points="217,211 241.5,186.7 246.9,181.4 250.4,184.9 273.3,207.8 272.7,168.7 244.7,140.8 217,168.3 			"/>
			<polygon class="st10" points="208.3,174.4 192.7,189.9 208.3,205.5 			"/>
		</g>
		<g>
			
				<rect x="232.3" y="200.9" transform="matrix(-0.7071 -0.7071 0.7071 -0.7071 267.9291 539.4151)" class="st1" width="26.7" height="26.7"/>
			
				<rect x="232.3" y="242.6" transform="matrix(-0.7071 -0.7071 0.7071 -0.7071 238.4421 610.603)" class="st11" width="26.7" height="26.7"/>
			
				<rect x="232.3" y="284.3" transform="matrix(-0.7071 -0.7071 0.7071 -0.7071 208.9551 681.791)" class="st6" width="26.7" height="26.7"/>
		</g>
		<path class="st2" d="M329.7,184.6c-0.3,0-0.5-0.2-0.5-0.5c0-22.6-8.5-43.4-24-58.7c-15.3-15-35.9-23.3-58-23.3s-42.7,8.3-58,23.3
			c-15.5,15.2-24,36.1-24,58.7c0,0.3-0.2,0.5-0.5,0.5s-0.5-0.2-0.5-0.5c0-22.9,8.6-44,24.3-59.4c15.5-15.2,36.3-23.6,58.7-23.6
			s43.2,8.4,58.7,23.6c15.7,15.4,24.3,36.5,24.3,59.4C330.2,184.4,330,184.6,329.7,184.6z"/>
		<g class="st12">
			<path class="st0" d="M164.1,199.2c-0.2,0-0.5-0.2-0.5-0.4l-0.1-0.9c0-0.3,0.1-0.5,0.4-0.6c0.3,0,0.5,0.1,0.6,0.4l0.1,0.9
				C164.7,198.9,164.5,199.1,164.1,199.2C164.2,199.2,164.2,199.2,164.1,199.2z"/>
			<path class="st0" d="M183.7,240.6c-0.1,0-0.3-0.1-0.4-0.2c-0.4-0.5-0.8-0.9-1.2-1.4c-0.2-0.2-0.2-0.5,0.1-0.7
				c0.2-0.2,0.5-0.2,0.7,0.1c0.4,0.5,0.8,0.9,1.2,1.4c0.2,0.2,0.2,0.5,0,0.7C184,240.6,183.8,240.6,183.7,240.6z M177.9,233.4
				c-0.2,0-0.3-0.1-0.4-0.2c-0.4-0.5-0.7-1-1.1-1.5c-0.2-0.2-0.1-0.5,0.1-0.7c0.2-0.2,0.5-0.1,0.7,0.1c0.3,0.5,0.7,1,1.1,1.5
				c0.2,0.2,0.1,0.5-0.1,0.7C178.1,233.4,178,233.4,177.9,233.4z M173,225.5c-0.2,0-0.3-0.1-0.4-0.3c-0.3-0.5-0.6-1.1-0.9-1.7
				c-0.1-0.2,0-0.5,0.2-0.7c0.2-0.1,0.5,0,0.7,0.2c0.3,0.5,0.6,1.1,0.9,1.6c0.1,0.2,0,0.5-0.2,0.7C173.1,225.5,173,225.5,173,225.5z
				 M169,217.1c-0.2,0-0.4-0.1-0.5-0.3c-0.2-0.6-0.5-1.2-0.7-1.7c-0.1-0.3,0-0.5,0.3-0.6c0.3-0.1,0.5,0,0.6,0.3
				c0.2,0.6,0.4,1.2,0.7,1.7c0.1,0.3,0,0.5-0.3,0.6C169.1,217.1,169.1,217.1,169,217.1z M166.1,208.3c-0.2,0-0.4-0.1-0.5-0.4
				c-0.2-0.6-0.3-1.2-0.5-1.8c-0.1-0.3,0.1-0.5,0.4-0.6c0.3-0.1,0.5,0.1,0.6,0.4c0.1,0.6,0.3,1.2,0.5,1.8c0.1,0.3-0.1,0.5-0.4,0.6
				C166.2,208.3,166.1,208.3,166.1,208.3z"/>
			<path class="st0" d="M189.6,246.5c-0.1,0-0.2,0-0.3-0.1c-0.2-0.2-0.5-0.4-0.7-0.6c-0.2-0.2-0.2-0.5,0-0.7c0.2-0.2,0.5-0.2,0.7,0
				c0.2,0.2,0.5,0.4,0.7,0.6c0.2,0.2,0.2,0.5,0,0.7C189.9,246.5,189.8,246.5,189.6,246.5z"/>
		</g>
		<g class="st12">
			<path class="st0" d="M304.5,246.5c-0.1,0-0.3-0.1-0.4-0.2c-0.2-0.2-0.2-0.5,0-0.7c0.2-0.2,0.5-0.4,0.7-0.6c0.2-0.2,0.5-0.2,0.7,0
				s0.2,0.5,0,0.7c-0.2,0.2-0.5,0.4-0.7,0.6C304.7,246.5,304.6,246.5,304.5,246.5z"/>
			<path class="st0" d="M310.4,240.6c-0.1,0-0.2,0-0.3-0.1c-0.2-0.2-0.2-0.5,0-0.7c0.4-0.5,0.8-0.9,1.2-1.4c0.2-0.2,0.5-0.2,0.7-0.1
				s0.2,0.5,0.1,0.7c-0.4,0.5-0.8,0.9-1.2,1.4C310.6,240.6,310.5,240.6,310.4,240.6z M316.2,233.4c-0.1,0-0.2,0-0.3-0.1
				c-0.2-0.2-0.3-0.5-0.1-0.7c0.4-0.5,0.7-1,1.1-1.5c0.2-0.2,0.5-0.3,0.7-0.1c0.2,0.2,0.3,0.5,0.1,0.7c-0.3,0.5-0.7,1-1.1,1.5
				C316.5,233.3,316.4,233.4,316.2,233.4z M321.1,225.5c-0.1,0-0.2,0-0.2-0.1c-0.2-0.1-0.3-0.4-0.2-0.7c0.3-0.5,0.6-1.1,0.9-1.6
				c0.1-0.2,0.4-0.3,0.7-0.2c0.2,0.1,0.3,0.4,0.2,0.7c-0.3,0.6-0.6,1.1-0.9,1.7C321.5,225.4,321.3,225.5,321.1,225.5z M325.1,217.1
				c-0.1,0-0.1,0-0.2,0c-0.3-0.1-0.4-0.4-0.3-0.6c0.2-0.6,0.4-1.1,0.7-1.7c0.1-0.3,0.4-0.4,0.6-0.3c0.3,0.1,0.4,0.4,0.3,0.6
				c-0.2,0.6-0.4,1.2-0.7,1.7C325.5,217,325.3,217.1,325.1,217.1z M328,208.3c0,0-0.1,0-0.1,0c-0.3-0.1-0.4-0.3-0.4-0.6
				c0.2-0.6,0.3-1.2,0.5-1.8c0.1-0.3,0.3-0.4,0.6-0.4c0.3,0.1,0.4,0.3,0.4,0.6c-0.2,0.6-0.3,1.2-0.5,1.8
				C328.4,208.1,328.2,208.3,328,208.3z"/>
			<path class="st0" d="M330,199.2C329.9,199.2,329.9,199.2,330,199.2c-0.4,0-0.5-0.3-0.5-0.6c0-0.3,0.1-0.6,0.1-0.9
				c0-0.3,0.3-0.5,0.6-0.4c0.3,0,0.5,0.3,0.4,0.6c0,0.3-0.1,0.6-0.1,0.9C330.4,199,330.2,199.2,330,199.2z"/>
		</g>
	</g>
	<g>
		<path class="st0" d="M104.4,477.2l-10.7,12.9H79.2l-18.1-21.6v-50.7h14.4v43.4l10.9,14.3l10.6-14.3v-43.4h14.4v43.4l10.9,14.3
			l10.7-14.3v-43.4h14.3v50.7l-17.8,21.6h-14.4L104.4,477.2z"/>
		<path class="st0" d="M156.9,490.1v-72.2h14.4v29h36v-29h14.3v72.2h-14.3v-28.8h-36v28.8H156.9z"/>
		<path class="st0" d="M231.9,490.1v-72.2h61.3v14.4h-46.8v14.5h43.2v14.4h-43.2v14.3h46.8v14.4H231.9z"/>
		<path class="st0" d="M352.9,490.1V483l-7.2-7.3l-7.2-7.1h-21.6v21.6h-14.4v-72.2h57.7l7.1,7.3v36.1l-7.1,7.2l7.1,7.1v14.4H352.9z
			 M352.9,454.1v-21.8h-36v21.8H352.9z"/>
		<path class="st0" d="M377.6,490.1v-72.2h61.3v14.4H392v14.5h43.2v14.4H392v14.3h46.8v14.4H377.6z"/>
	</g>
</g>
</svg>
