<?xml version="1.0" encoding="utf-8"?>
<!-- Generator: Adobe Illustrator 20.1.0, SVG Export Plug-In . SVG Version: 6.00 Build 0)  -->
<svg version="1.1" id="Layer_1" xmlns="http://www.w3.org/2000/svg" xmlns:xlink="http://www.w3.org/1999/xlink" x="0px" y="0px"
	 width="500px" height="248px" viewBox="0 0 500 248" style="enable-background:new 0 0 500 248;" xml:space="preserve">
<style type="text/css">
	.st0{opacity:0.15;}
	.st1{fill:#FFFFFF;}
</style>
<g>
	<g>
		<g class="st0">
			<path d="M33.5,233.1v-76.5H0v-19.1h85.7v19.1H52.6v76.5H33.5z"/>
			<path d="M95.3,233.1v-95.6h19.1v38.4H162v-38.4h19v95.6h-19V195h-47.6v38.1H95.3z"/>
			<path d="M194.7,233.1v-95.6h81.1v19.1h-62v19.2H271V195h-57.2v19h62v19.1H194.7z"/>
			<path d="M354.9,233.1v-9.4l-9.6-9.7l-9.6-9.4h-28.5v28.5h-19.1v-95.6h76.3l9.4,9.7V195l-9.4,9.6l9.4,9.4v19.1H354.9z
				 M354.9,185.4v-28.8h-47.6v28.8H354.9z"/>
			<path d="M387.5,233.1v-95.6h81.1v19.1h-62v19.2h57.2V195h-57.2v19h62v19.1H387.5z"/>
			<path d="M480.9,204.6v-67H500v67H480.9z M480.9,214H500v19.1h-19.1V214z"/>
		</g>
		<g>
			<path class="st1" d="M33.5,221.9v-76.5H0v-19.1h85.7v19.1H52.6v76.5H33.5z"/>
			<path class="st1" d="M95.3,221.9v-95.6h19.1v38.4H162v-38.4h19v95.6h-19v-38.1h-47.6v38.1H95.3z"/>
			<path class="st1" d="M194.7,221.9v-95.6h81.1v19.1h-62v19.2H271v19.1h-57.2v19h62v19.1L194.7,221.9L194.7,221.9z"/>
			<path class="st1" d="M354.9,221.9v-9.4l-9.6-9.7l-9.6-9.4h-28.5v28.5h-19.1v-95.6h76.3l9.4,9.7v47.8l-9.4,9.6l9.4,9.4v19.1H354.9
				z M354.9,174.3v-28.8h-47.6v28.8H354.9z"/>
			<path class="st1" d="M387.5,221.9v-95.6h81.1v19.1h-62v19.2h57.2v19.1h-57.2v19h62v19.1L387.5,221.9L387.5,221.9z"/>
			<path class="st1" d="M480.9,193.4v-67H500v67H480.9z M480.9,202.8H500v19.1h-19.1V202.8z"/>
		</g>
	</g>
	<g>
		<g class="st0">
			<path d="M180.6,121.6L133,57.9v63.8h-19.1V26.1H133l47.6,63.6V26.1h19v95.6h-19V121.6z"/>
			<path d="M222.7,121.6l-9.4-9.4V35.7l9.4-9.7h66.9l9.4,9.7v76.5l-9.4,9.4H222.7z M280,102.5V45.2h-47.6v57.3H280z"/>
			<path d="M342,121.6V45.1h-33.5V26h85.7v19.1H361v76.5H342z"/>
		</g>
		<g>
			<path class="st1" d="M180.6,110.5L133,46.7v63.8h-19.1V14.9H133l47.6,63.6V14.9h19v95.6H180.6z"/>
			<path class="st1" d="M222.7,110.5l-9.4-9.4V24.6l9.4-9.7h66.9l9.4,9.7v76.5l-9.4,9.4H222.7z M280,91.4V34h-47.6v57.3L280,91.4
				L280,91.4z"/>
			<path class="st1" d="M342,110.5V34h-33.5V14.9h85.7V34H361v76.5H342z"/>
		</g>
	</g>
</g>
</svg>
