<?xml version="1.0" encoding="utf-8"?>
<!-- Generator: Adobe Illustrator 20.1.0, SVG Export Plug-In . SVG Version: 6.00 Build 0)  -->
<svg version="1.1" id="Layer_1" xmlns="http://www.w3.org/2000/svg" xmlns:xlink="http://www.w3.org/1999/xlink" x="0px" y="0px"
	 width="100px" height="100px" viewBox="0 0 100 100" style="enable-background:new 0 0 100 100;" xml:space="preserve">
<style type="text/css">
	.st0{fill:#FFCA5D;}
	.st1{opacity:0.5;fill:#FFCA5D;}
	.st2{fill:#FFFFFF;}
	.st3{opacity:0.5;}
</style>
<g>
	<polygon class="st0" points="80,40 20,40 20,15 30,15 30,30 70,30 70,15 80,15 	"/>
	<rect x="35" y="15" class="st1" width="30" height="10"/>
	<polygon class="st0" points="80,85 70,85 70,70 30,70 30,85 20,85 20,60 80,60 	"/>
	<rect x="35" y="75" class="st1" width="30" height="10"/>
	<rect y="45" class="st2" width="100" height="10"/>
	<g class="st3">
		<rect x="85" y="30" class="st2" width="15" height="10"/>
		<rect x="85" y="60" class="st2" width="15" height="10"/>
	</g>
	<g class="st3">
		<rect y="30" class="st2" width="15" height="10"/>
		<rect y="60" class="st2" width="15" height="10"/>
	</g>
</g>
</svg>
