<?xml version="1.0" encoding="utf-8"?>
<!-- Generator: Adobe Illustrator 20.1.0, SVG Export Plug-In . SVG Version: 6.00 Build 0)  -->
<svg version="1.1" id="Layer_1" xmlns="http://www.w3.org/2000/svg" xmlns:xlink="http://www.w3.org/1999/xlink" x="0px" y="0px"
	 width="100px" height="100px" viewBox="0 0 100 100" style="enable-background:new 0 0 100 100;" xml:space="preserve">
<style type="text/css">
	.st0{fill:#FFFFFF;}
	.st1{opacity:0.5;fill:#FFFFFF;}
	.st2{fill:#4DB8DE;}
	.st3{fill:#44A5C6;}
	.st4{fill:#3E95B3;}
</style>
<g>
	<polygon class="st0" points="49.9,16.1 20.3,32.6 27.8,67.4 49.9,83.9 72.1,67.4 79.7,32.6 	"/>
	<path class="st1" d="M49.8,7.9l36.4,20.1l-9.6,43.7L49.8,91.5L23.2,71.7l-9.5-43.8L49.8,7.9 M49.8,1.4L7.3,25L18.1,75l31.7,23.6
		L81.7,75l11-49.9L49.8,1.4L49.8,1.4z"/>
	<polygon class="st2" points="49.9,23.9 27.1,36.6 32.9,63.4 49.9,76.1 67,63.4 72.9,36.6 	"/>
	<polygon class="st3" points="49.9,23.9 27.1,36.6 32.9,63.4 33.3,63.7 35.8,62.2 50.1,54.3 64.5,62.2 66.7,63.6 67,63.4 72.9,36.6 
			"/>
	<polygon class="st4" points="72.9,36.6 49.9,23.9 27.1,36.6 29,45.7 35.8,41.5 50.1,33.6 64.5,41.5 71,45.5 	"/>
	<polygon class="st0" points="49.9,33.5 35.5,41.5 39.2,58.5 49.9,66.5 60.7,58.5 64.5,41.5 	"/>
</g>
</svg>
