<?xml version="1.0" encoding="utf-8"?>
<!-- Generator: Adobe Illustrator 20.1.0, SVG Export Plug-In . SVG Version: 6.00 Build 0)  -->
<svg version="1.1" id="Layer_1" xmlns="http://www.w3.org/2000/svg" xmlns:xlink="http://www.w3.org/1999/xlink" x="0px" y="0px"
	 width="826px" height="836px" viewBox="0 0 826 836" style="enable-background:new 0 0 826 836;" xml:space="preserve">
<style type="text/css">
	.st0{opacity:0.4;}
	.st1{opacity:0.13;fill:#FFFFFF;}
	.st2{opacity:0.46;}
	.st3{fill:#FFFFFF;}
	.st4{opacity:0.39;}
	.st5{opacity:0.14;}
</style>
<g class="st0">
	<circle class="st1" cx="736.1" cy="409" r="4.4"/>
	<circle class="st1" cx="41.5" cy="378.4" r="4.4"/>
	<circle class="st1" cx="473.3" cy="235.6" r="4.4"/>
	<circle class="st1" cx="248" cy="52.1" r="4.4"/>
	<g class="st2">
		<circle class="st3" cx="53.2" cy="478.3" r="4.4"/>
		<circle class="st3" cx="752.2" cy="256.8" r="4.4"/>
		<circle class="st3" cx="312.6" cy="569.3" r="4.4"/>
		<circle class="st3" cx="419.6" cy="129.3" r="4.4"/>
		<circle class="st3" cx="72.6" cy="28.3" r="4.4"/>
		<circle class="st3" cx="543.4" cy="327.3" r="4.4"/>
		<circle class="st3" cx="229.2" cy="256" r="4.4"/>
		<circle class="st3" cx="461.3" cy="795.7" r="3.2"/>
	</g>
	<g class="st4">
		<circle class="st3" cx="698.6" cy="531.4" r="4.4"/>
		<circle class="st3" cx="360.6" cy="388.6" r="4.4"/>
		<circle class="st3" cx="92.9" cy="782.7" r="4.4"/>
		<circle class="st3" cx="417" cy="572.1" r="3.2"/>
	</g>
	<g class="st5">
		<circle class="st3" cx="260.2" cy="113.1" r="3.2"/>
		<circle class="st3" cx="398.2" cy="490.6" r="3.2"/>
	</g>
	<circle class="st1" cx="604.7" cy="541.5" r="3.2"/>
	<g class="st4">
		<circle class="st3" cx="604.8" cy="122.6" r="4.4"/>
		<circle class="st3" cx="585.9" cy="419.2" r="3.2"/>
		<circle class="st3" cx="739.8" cy="113.3" r="3.2"/>
		<circle class="st3" cx="628.2" cy="678.9" r="3.2"/>
	</g>
	<circle class="st1" cx="256.5" cy="709.6" r="4.4"/>
	<g>
		<circle class="st3" cx="559.5" cy="55.9" r="3.2"/>
		<circle class="st3" cx="135.4" cy="133.7" r="4.4"/>
		<circle class="st3" cx="645.4" cy="445.7" r="4.4"/>
	</g>
</g>
</svg>
