<?xml version="1.0" encoding="utf-8"?>
<!-- Generator: Adobe Illustrator 20.1.0, SVG Export Plug-In . SVG Version: 6.00 Build 0)  -->
<svg version="1.1" id="Layer_1" xmlns="http://www.w3.org/2000/svg" xmlns:xlink="http://www.w3.org/1999/xlink" x="0px" y="0px"
	 width="826px" height="836px" viewBox="0 0 826 836" style="enable-background:new 0 0 826 836;" xml:space="preserve">
<style type="text/css">
	.st0{opacity:0.18;}
	.st1{opacity:0.13;fill:#FFFFFF;}
	.st2{opacity:0.46;}
	.st3{fill:#FFFFFF;}
	.st4{opacity:0.39;}
	.st5{opacity:0.14;}
</style>
<g class="st0">
	<circle class="st1" cx="432.6" cy="125.3" r="4.4"/>
	<circle class="st1" cx="402" cy="819.9" r="4.4"/>
	<circle class="st1" cx="259.3" cy="388.1" r="4.4"/>
	<circle class="st1" cx="75.7" cy="613.4" r="4.4"/>
	<g class="st2">
		<circle class="st3" cx="502" cy="808.2" r="4.4"/>
		<circle class="st3" cx="280.4" cy="109.2" r="4.4"/>
		<circle class="st3" cx="592.9" cy="548.7" r="4.4"/>
		<circle class="st3" cx="51.9" cy="788.7" r="4.4"/>
		<circle class="st3" cx="351" cy="318" r="4.4"/>
		<circle class="st3" cx="279.7" cy="632.2" r="4.4"/>
		<circle class="st3" cx="819.3" cy="400.1" r="3.2"/>
	</g>
	<g class="st4">
		<circle class="st3" cx="555" cy="162.8" r="4.4"/>
		<circle class="st3" cx="412.2" cy="500.8" r="4.4"/>
		<circle class="st3" cx="806.3" cy="768.5" r="4.4"/>
		<circle class="st3" cx="595.8" cy="444.4" r="3.2"/>
		<circle class="st3" cx="116.5" cy="140.4" r="3.2"/>
	</g>
	<g class="st5">
		<circle class="st3" cx="136.7" cy="601.2" r="3.2"/>
		<circle class="st3" cx="187.9" cy="237.9" r="4.4"/>
		<circle class="st3" cx="514.2" cy="463.2" r="3.2"/>
		<circle class="st3" cx="249.1" cy="294.2" r="3.2"/>
		<circle class="st3" cx="149.6" cy="556.5" r="3.2"/>
	</g>
	<circle class="st1" cx="565.2" cy="256.7" r="3.2"/>
	<g class="st4">
		<circle class="st3" cx="361.2" cy="594.6" r="4.4"/>
		<circle class="st3" cx="140.2" cy="737.1" r="3.2"/>
		<circle class="st3" cx="442.8" cy="275.5" r="3.2"/>
		<circle class="st3" cx="136.9" cy="121.6" r="3.2"/>
		<circle class="st3" cx="702.5" cy="233.2" r="3.2"/>
	</g>
	<circle class="st1" cx="710.2" cy="30.9" r="4.4"/>
	<g>
		<circle class="st3" cx="79.5" cy="301.9" r="3.2"/>
		<circle class="st3" cx="340.8" cy="519.5" r="3.2"/>
		<circle class="st3" cx="157.3" cy="726" r="4.4"/>
	</g>
</g>
</svg>
