<?xml version="1.0" encoding="utf-8"?>
<!-- Generator: Adobe Illustrator 20.1.0, SVG Export Plug-In . SVG Version: 6.00 Build 0)  -->
<svg version="1.1" id="Layer_1" xmlns="http://www.w3.org/2000/svg" xmlns:xlink="http://www.w3.org/1999/xlink" x="0px" y="0px"
	 width="100px" height="100px" viewBox="0 0 100 100" style="enable-background:new 0 0 100 100;" xml:space="preserve">
<style type="text/css">
	.st0{fill:#73F7DD;}
	.st1{opacity:0.5;fill:#FFFFFF;}
	.st2{fill:#FFFFFF;}
</style>
<g>
	<g>
		
			<rect x="35" y="34.1" transform="matrix(0.7071 -0.7071 0.7071 0.7071 -20.3988 50.4614)" class="st0" width="31.5" height="31.5"/>
		<polygon class="st1" points="50,100.1 71.1,79 63.6,71.5 50,85 36.4,71.5 28.9,79 		"/>
		<polygon class="st1" points="50,0.1 28.9,21.3 36.4,28.8 50,15.3 63.6,28.8 71.1,21.3 		"/>
	</g>
	<polygon class="st2" points="0,50.1 21.1,71.3 28.7,63.7 15.1,50.1 28.7,36.6 21.1,29 	"/>
	<polygon class="st2" points="100,50.1 78.9,29 71.3,36.6 84.9,50.1 71.3,63.7 78.9,71.3 	"/>
</g>
</svg>
