<?xml version="1.0" encoding="utf-8"?>
<!-- Generator: Adobe Illustrator 20.1.0, SVG Export Plug-In . SVG Version: 6.00 Build 0)  -->
<svg version="1.1" id="Layer_1" xmlns="http://www.w3.org/2000/svg" xmlns:xlink="http://www.w3.org/1999/xlink" x="0px" y="0px"
	 width="500px" height="500px" viewBox="0 0 500 500" style="enable-background:new 0 0 500 500;" xml:space="preserve">
<style type="text/css">
	.st0{fill:none;}
	.st1{clip-path:url(#SVGID_2_);}
	.st2{fill:#FFC952;}
	.st3{fill:#F2F2F2;}
	.st4{fill:#CCCCCC;}
	.st5{opacity:0.5;fill:#73F7DD;enable-background:new    ;}
	.st6{fill:#34314C;}
	.st7{fill:#B3B3B3;}
	.st8{opacity:0.25;fill:#FFC952;}
</style>
<g>
	<circle class="st0" cx="250" cy="250" r="225.3"/>
	<g>
		<g>
			<defs>
				<circle id="SVGID_1_" cx="249.7" cy="250" r="225.4"/>
			</defs>
			<clipPath id="SVGID_2_">
				<use xlink:href="#SVGID_1_"  style="overflow:visible;"/>
			</clipPath>
			<g class="st1">
				<path class="st2" d="M100.2,352.3l259.6,73.4l12.8-40l-272.4-80.6C100.3,317.1,100.3,333.9,100.2,352.3z"/>
				<g>
					<path class="st3" d="M234.1,273.4c0-9.6-7.8-17.4-17.4-17.4s-17.4,7.8-17.4,17.4s7.8,17.4,17.4,17.4S234.1,283,234.1,273.4z"/>
					<path class="st4" d="M260.1,339.2v-72l99-102.8l-0.3-0.2c-28.1-22.8-63.7-35.4-100.1-35.4c-87.4,0-158.5,70.8-158.5,157.9
						c0,0.4,0,2.2,0,5.3L260.1,339.2z M243.6,273.4c0,14.8-12,26.8-26.8,26.8s-26.8-12-26.8-26.8c0-6,2-11.6,5.4-16l-29.7-29.7
						l6.7-6.7l29.9,29.9c4.2-2.7,9.2-4.3,14.5-4.3C231.5,246.6,243.6,258.6,243.6,273.4z"/>
				</g>
				<g>
					<path class="st4" d="M294.8,475.3h85.4c-8.3-10.6-15.1-24.1-23.9-37.5l-256.1-72.4c0,51.8-0.1,109.9-0.1,109.9l0,0
						c21-37.8,57.5-61.3,97.3-61.3C237.1,414,273.5,436.9,294.8,475.3z"/>
					<path class="st3" d="M115.3,475.3h164.4c-19.3-30.4-49.5-48.3-82.2-48.3C164.7,427,134.4,445.4,115.3,475.3z"/>
				</g>
				<path class="st5" d="M272.3,341.5l1.6-68.1l74.7-79.7l-0.1-0.1l9.5-9.9c30.6,22.9,50.5,59.3,50.5,100.4
					c0,34.3-13.9,65.5-36.3,88.2l-15.1-4.5c0.1,0,0.1-0.1,0.2-0.1L272.3,341.5z"/>
				<circle class="st6" cx="162.5" cy="218.2" r="10.7"/>
				<circle class="st2" cx="216.4" cy="273.6" r="7.9"/>
				<g>
					<circle class="st7" cx="209.1" cy="359.8" r="7.3"/>
					<circle class="st7" cx="188.3" cy="353.9" r="7.3"/>
					<circle class="st7" cx="167.9" cy="348.2" r="7.3"/>
				</g>
			</g>
		</g>
	</g>
	<path class="st2" d="M250,480.7C122.8,480.7,19.3,377.2,19.3,250S122.8,19.3,250,19.3S480.7,122.8,480.7,250S377.2,480.7,250,480.7
		z M250,30C128.7,30,30,128.7,30,250s98.7,220,220,220s220-98.7,220-220S371.3,30,250,30z"/>
</g>
<path class="st8" d="M250,500C112.1,500,0,387.9,0,250S112.1,0,250,0s250,112.1,250,250S387.9,500,250,500z M250,10.7
	C118.1,10.7,10.7,118.1,10.7,250S118.1,489.3,250,489.3S489.3,381.9,489.3,250S381.9,10.7,250,10.7z"/>
</svg>
