<?xml version="1.0" encoding="utf-8"?>
<!-- Generator: Adobe Illustrator 20.1.0, SVG Export Plug-In . SVG Version: 6.00 Build 0)  -->
<svg version="1.1" id="Layer_1" xmlns="http://www.w3.org/2000/svg" xmlns:xlink="http://www.w3.org/1999/xlink" x="0px" y="0px"
	 width="500px" height="500px" viewBox="0 0 500 500" style="enable-background:new 0 0 500 500;" xml:space="preserve">
<style type="text/css">
	.st0{clip-path:url(#SVGID_2_);}
	.st1{fill:#73F7DD;}
	.st2{fill:#F2F2F2;}
	.st3{fill:#CCCCCC;}
	.st4{opacity:0.5;fill:#73F7DD;}
	.st5{fill:#34314C;}
	.st6{fill:#B3B3B3;}
	.st7{opacity:0.25;fill:#73F7DD;}
</style>
<g>
	<g>
		<defs>
			<circle id="SVGID_1_" cx="250.3" cy="250" r="225.4"/>
		</defs>
		<clipPath id="SVGID_2_">
			<use xlink:href="#SVGID_1_"  style="overflow:visible;"/>
		</clipPath>
		<g class="st0">
			<path class="st1" d="M399.7,305.1l-272.4,80.6l12.8,40l259.6-73.4C399.7,333.9,399.7,317.1,399.7,305.1z"/>
			<g>
				<path class="st2" d="M283.3,290.8c9.6,0,17.4-7.8,17.4-17.4s-7.8-17.4-17.4-17.4s-17.4,7.8-17.4,17.4S273.7,290.8,283.3,290.8z"
					/>
				<path class="st3" d="M399.7,291.9c0-3.1,0-4.9,0-5.3c0-87-71.1-157.9-158.5-157.9c-36.4,0-71.9,12.6-100.1,35.4l-0.3,0.2
					l99,102.8v72L399.7,291.9z M283.3,246.6c5.4,0,10.3,1.6,14.5,4.3l29.9-29.9l6.7,6.7l-29.7,29.7c3.4,4.5,5.4,10,5.4,16
					c0,14.8-12,26.8-26.8,26.8c-14.8,0-26.8-12-26.8-26.8C256.4,258.6,268.5,246.6,283.3,246.6z"/>
			</g>
			<g>
				<path class="st3" d="M302.5,414c39.9,0,76.4,23.5,97.3,61.3h0c0,0,0-58.2-0.1-109.9l-256.1,72.4c-8.8,13.4-15.6,27-23.9,37.5
					h85.4C226.5,436.9,262.9,414,302.5,414z"/>
				<path class="st2" d="M302.5,427c-32.6,0-62.9,17.9-82.2,48.3h164.4C365.6,445.4,335.3,427,302.5,427z"/>
			</g>
			<path class="st4" d="M227.7,341.5l-1.6-68.1l-74.7-79.7c0,0,0.1-0.1,0.1-0.1l-9.5-9.9c-30.6,22.9-50.5,59.3-50.5,100.4
				c0,34.3,13.9,65.5,36.3,88.2l15.1-4.5c-0.1,0-0.1-0.1-0.2-0.1L227.7,341.5z"/>
			<circle class="st5" cx="337.5" cy="218.2" r="10.7"/>
			<circle class="st1" cx="283.6" cy="273.6" r="7.9"/>
			<g>
				<circle class="st6" cx="290.9" cy="359.8" r="7.3"/>
				<circle class="st6" cx="311.7" cy="353.9" r="7.3"/>
				<circle class="st6" cx="332.1" cy="348.2" r="7.3"/>
			</g>
		</g>
	</g>
	<path class="st1" d="M250,480.7C122.8,480.7,19.3,377.2,19.3,250C19.3,122.8,122.8,19.3,250,19.3S480.7,122.8,480.7,250
		C480.7,377.2,377.2,480.7,250,480.7z M250,30C128.7,30,30,128.7,30,250s98.7,220,220,220s220-98.7,220-220S371.3,30,250,30z"/>
	<path class="st7" d="M250,500C112.1,500,0,387.9,0,250C0,112.1,112.1,0,250,0s250,112.1,250,250C500,387.9,387.9,500,250,500z
		 M250,10.7C118.1,10.7,10.7,118.1,10.7,250S118.1,489.3,250,489.3S489.3,381.9,489.3,250S381.9,10.7,250,10.7z"/>
</g>
</svg>
